<svg width="305" height="245" viewBox="0 0 305 245" fill="none" xmlns="http://www.w3.org/2000/svg">
<path d="M230 115C230 178.513 178.513 230 115 230C51.4873 230 0 178.513 0 115C0 51.4873 51.4873 0 115 0C178.513 0 230 51.4873 230 115Z" fill="#F7F7F7"/>
<path d="M305 170C305 211.421 271.421 245 230 245C188.579 245 155 211.421 155 170C155 128.579 188.579 95 230 95C271.421 95 305 128.579 305 170Z" fill="#EDEDED"/>
<path d="M190.52 161.848V178H187.496V164.944L183.896 167.128L182.552 165.064L187.808 161.848H190.52Z" fill="#111111"/>
<path d="M205.645 161.416C207.773 161.416 209.421 161.856 210.589 162.736C211.773 163.616 212.365 164.936 212.365 166.696C212.365 168.536 211.773 169.92 210.589 170.848C209.405 171.76 207.829 172.216 205.861 172.216H203.917V178H200.749V161.416H205.645ZM205.621 169.84C206.757 169.84 207.613 169.608 208.189 169.144C208.765 168.664 209.053 167.848 209.053 166.696C209.053 164.728 207.909 163.744 205.621 163.744H203.917V169.84H205.621Z" fill="#111111"/>
<path d="M220.628 164.968C221.092 164.968 221.516 165.024 221.9 165.136L221.372 168.112C220.988 168.016 220.612 167.968 220.244 167.968C219.492 167.968 218.9 168.24 218.468 168.784C218.036 169.312 217.692 170.128 217.436 171.232V178H214.364V165.304H217.028L217.316 167.8C217.62 166.888 218.06 166.192 218.636 165.712C219.212 165.216 219.876 164.968 220.628 164.968Z" fill="#111111"/>
<path d="M228.266 164.944C230.138 164.944 231.594 165.544 232.634 166.744C233.69 167.928 234.218 169.56 234.218 171.64C234.218 172.968 233.978 174.144 233.498 175.168C233.018 176.176 232.33 176.96 231.434 177.52C230.538 178.08 229.474 178.36 228.242 178.36C226.37 178.36 224.906 177.768 223.85 176.584C222.794 175.384 222.266 173.736 222.266 171.64C222.266 170.312 222.506 169.144 222.986 168.136C223.466 167.128 224.154 166.344 225.05 165.784C225.962 165.224 227.034 164.944 228.266 164.944ZM228.266 167.272C226.426 167.272 225.506 168.728 225.506 171.64C225.506 173.144 225.73 174.256 226.178 174.976C226.642 175.68 227.33 176.032 228.242 176.032C229.154 176.032 229.834 175.672 230.282 174.952C230.746 174.232 230.978 173.128 230.978 171.64C230.978 170.152 230.746 169.056 230.282 168.352C229.834 167.632 229.162 167.272 228.266 167.272Z" fill="#111111"/>
<path d="M240.146 176.872C240.146 178.12 239.962 179.136 239.594 179.92C239.242 180.72 238.738 181.36 238.082 181.84C237.426 182.32 236.57 182.776 235.514 183.208L234.53 180.976C235.154 180.688 235.642 180.4 235.994 180.112C236.346 179.84 236.61 179.464 236.786 178.984C236.978 178.504 237.074 177.864 237.074 177.064V165.304H240.146V176.872ZM238.586 158.872C239.162 158.872 239.626 159.056 239.978 159.424C240.346 159.776 240.53 160.216 240.53 160.744C240.53 161.272 240.346 161.712 239.978 162.064C239.626 162.416 239.162 162.592 238.586 162.592C238.026 162.592 237.562 162.416 237.194 162.064C236.842 161.712 236.666 161.272 236.666 160.744C236.666 160.216 236.842 159.776 237.194 159.424C237.562 159.056 238.026 158.872 238.586 158.872Z" fill="#111111"/>
<path d="M254.264 171.352C254.264 171.512 254.24 171.928 254.192 172.6H246.224C246.32 173.832 246.64 174.712 247.184 175.24C247.728 175.768 248.448 176.032 249.344 176.032C249.904 176.032 250.432 175.944 250.928 175.768C251.424 175.576 251.952 175.288 252.512 174.904L253.784 176.656C252.376 177.792 250.808 178.36 249.08 178.36C247.144 178.36 245.648 177.768 244.592 176.584C243.552 175.4 243.032 173.784 243.032 171.736C243.032 170.44 243.256 169.28 243.704 168.256C244.152 167.216 244.8 166.408 245.648 165.832C246.496 165.24 247.504 164.944 248.672 164.944C250.448 164.944 251.824 165.512 252.8 166.648C253.776 167.768 254.264 169.336 254.264 171.352ZM251.216 170.464C251.216 168.24 250.392 167.128 248.744 167.128C247.992 167.128 247.4 167.408 246.968 167.968C246.552 168.512 246.304 169.392 246.224 170.608H251.216V170.464Z" fill="#111111"/>
<path d="M264.292 177.4C263.844 177.72 263.34 177.96 262.78 178.12C262.236 178.28 261.676 178.36 261.1 178.36C259.852 178.344 258.9 177.992 258.244 177.304C257.604 176.6 257.284 175.568 257.284 174.208V167.512H255.292V165.304H257.284V162.496L260.356 162.136V165.304H263.308L262.996 167.512H260.356V174.136C260.356 174.76 260.46 175.208 260.668 175.48C260.892 175.752 261.236 175.888 261.7 175.888C262.164 175.888 262.668 175.736 263.212 175.432L264.292 177.4Z" fill="#111111"/>
<path d="M270.805 164.944C272.677 164.944 274.133 165.544 275.173 166.744C276.229 167.928 276.757 169.56 276.757 171.64C276.757 172.968 276.517 174.144 276.037 175.168C275.557 176.176 274.869 176.96 273.973 177.52C273.077 178.08 272.013 178.36 270.781 178.36C268.909 178.36 267.445 177.768 266.389 176.584C265.333 175.384 264.805 173.736 264.805 171.64C264.805 170.312 265.045 169.144 265.525 168.136C266.005 167.128 266.693 166.344 267.589 165.784C268.501 165.224 269.573 164.944 270.805 164.944ZM270.805 167.272C268.965 167.272 268.045 168.728 268.045 171.64C268.045 173.144 268.269 174.256 268.717 174.976C269.181 175.68 269.869 176.032 270.781 176.032C271.693 176.032 272.373 175.672 272.821 174.952C273.285 174.232 273.517 173.128 273.517 171.64C273.517 170.152 273.285 169.056 272.821 168.352C272.373 167.632 271.701 167.272 270.805 167.272Z" fill="#111111"/>
<path d="M39.28 104V103.44H47.88C48.6 103.44 49.2 103.247 49.68 102.86C50.1733 102.46 50.5533 101.94 50.82 101.3C51.1 100.66 51.2467 99.96 51.26 99.2H52V104H39.28ZM41.4 103.7V89.02H44.34V103.7H41.4ZM47.68 99.68C47.6667 98.9867 47.5533 98.4333 47.34 98.02C47.1267 97.5933 46.7733 97.2867 46.28 97.1C45.7867 96.9133 45.1133 96.82 44.26 96.82V96.26C45.1133 96.26 45.7867 96.1733 46.28 96C46.7867 95.8267 47.14 95.5467 47.34 95.16C47.5533 94.76 47.6667 94.2333 47.68 93.58H48.42V99.68H47.68ZM50.8 92.96C50.7867 92.3333 50.6467 91.76 50.38 91.24C50.1267 90.7067 49.7667 90.28 49.3 89.96C48.8333 89.64 48.2667 89.48 47.6 89.48H39.28V88.92H51.56V92.96H50.8Z" fill="black"/>
<path d="M52.5667 104V103.44H54.4867L58.5867 97L54.2467 89.48H52.6667V88.92H59.7267V89.48H57.6267L60.5667 94.58L63.8467 89.48H61.5867V88.92H66.3867V89.48H64.5467L60.9067 95.2L65.6667 103.44H67.1867V104H60.2267V103.44H62.3067L58.9267 97.6L55.2267 103.44H57.6867V104H52.5667Z" fill="black"/>
<path d="M71.752 97.16V96.56H73.412C74.2254 96.56 74.8854 96.4667 75.392 96.28C75.8987 96.08 76.2654 95.7133 76.492 95.18C76.732 94.6467 76.852 93.88 76.852 92.88C76.852 91.9333 76.7587 91.22 76.572 90.74C76.3854 90.2467 76.0987 89.9133 75.712 89.74C75.3387 89.5667 74.872 89.48 74.312 89.48H67.152V88.92H75.212C76.172 88.92 77.032 89.0933 77.792 89.44C78.5654 89.7867 79.1787 90.2667 79.632 90.88C80.0854 91.48 80.312 92.1733 80.312 92.96C80.312 93.7867 80.032 94.52 79.472 95.16C78.9254 95.7867 78.1387 96.28 77.112 96.64C76.0854 96.9867 74.852 97.16 73.412 97.16H71.752ZM67.152 104V103.44H74.592V104H67.152ZM69.192 103.7V88.92H72.112V103.7H69.192Z" fill="black"/>
<path d="M80.9597 104V103.44H89.5597C90.2797 103.44 90.8797 103.247 91.3597 102.86C91.853 102.46 92.233 101.94 92.4997 101.3C92.7797 100.66 92.9264 99.96 92.9397 99.2H93.6797V104H80.9597ZM83.0797 103.7V89.02H86.0197V103.7H83.0797ZM89.3597 99.68C89.3464 98.9867 89.233 98.4333 89.0197 98.02C88.8064 97.5933 88.453 97.2867 87.9597 97.1C87.4664 96.9133 86.793 96.82 85.9397 96.82V96.26C86.793 96.26 87.4664 96.1733 87.9597 96C88.4664 95.8267 88.8197 95.5467 89.0197 95.16C89.233 94.76 89.3464 94.2333 89.3597 93.58H90.0997V99.68H89.3597ZM92.4797 92.96C92.4664 92.3333 92.3264 91.76 92.0597 91.24C91.8064 90.7067 91.4464 90.28 90.9797 89.96C90.513 89.64 89.9464 89.48 89.2797 89.48H80.9597V88.92H93.2397V92.96H92.4797Z" fill="black"/>
<path d="M99.5064 96.2V95.6H101.166C101.886 95.6 102.466 95.52 102.906 95.36C103.36 95.1867 103.686 94.8733 103.886 94.42C104.1 93.9533 104.206 93.28 104.206 92.4C104.206 91.5733 104.12 90.9533 103.946 90.54C103.773 90.1267 103.513 89.8467 103.166 89.7C102.82 89.5533 102.386 89.48 101.866 89.48H94.9064V88.92H102.766C103.673 88.92 104.493 89.06 105.226 89.34C105.973 89.6067 106.566 89.9933 107.006 90.5C107.446 91.0067 107.666 91.6267 107.666 92.36C107.666 93.16 107.406 93.8467 106.886 94.42C106.366 94.9933 105.62 95.4333 104.646 95.74C103.686 96.0467 102.526 96.2 101.166 96.2H99.5064ZM94.9064 104V103.44H102.346V104H94.9064ZM96.9464 103.7V88.92H99.8664V103.7H96.9464ZM107.286 104C106.633 104 106.04 103.873 105.506 103.62C104.973 103.367 104.546 103.013 104.226 102.56C103.92 102.093 103.746 101.553 103.706 100.94L103.626 99.06C103.586 98.0867 103.32 97.3667 102.826 96.9C102.333 96.4333 101.706 96.2 100.946 96.2L102.466 96.04H103.506V96.12C104.093 96.2533 104.66 96.5133 105.206 96.9C105.753 97.2867 106.2 97.7533 106.546 98.3C106.906 98.8467 107.086 99.44 107.086 100.08V101.04C107.086 101.96 107.186 102.587 107.386 102.92C107.586 103.253 107.946 103.42 108.466 103.42H109.226V104H107.286Z" fill="black"/>
<path d="M111.263 103.7V88.92H114.183V103.7H111.263ZM109.223 104V103.44H116.263V104H109.223ZM109.223 89.48V88.92H116.263V89.48H109.223Z" fill="black"/>
<path d="M116.819 104V103.44H125.419C126.139 103.44 126.739 103.247 127.219 102.86C127.712 102.46 128.092 101.94 128.359 101.3C128.639 100.66 128.786 99.96 128.799 99.2H129.539V104H116.819ZM118.939 103.7V89.02H121.879V103.7H118.939ZM125.219 99.68C125.206 98.9867 125.092 98.4333 124.879 98.02C124.666 97.5933 124.312 97.2867 123.819 97.1C123.326 96.9133 122.652 96.82 121.799 96.82V96.26C122.652 96.26 123.326 96.1733 123.819 96C124.326 95.8267 124.679 95.5467 124.879 95.16C125.092 94.76 125.206 94.2333 125.219 93.58H125.959V99.68H125.219ZM128.339 92.96C128.326 92.3333 128.186 91.76 127.919 91.24C127.666 90.7067 127.306 90.28 126.839 89.96C126.372 89.64 125.806 89.48 125.139 89.48H116.819V88.92H129.099V92.96H128.339ZM120.239 87.48L122.859 85.2H124.099L126.719 87.48H125.759L123.479 86.56L121.199 87.48H120.239Z" fill="black"/>
<path d="M142.766 104.26L133.866 90.76H133.786V103.44H135.986V104H130.766V103.44H132.966V89.48H130.766V88.92H136.386L142.606 98.22H142.686V89.48H140.686V88.92H145.526V89.48H143.526V104.26H142.766Z" fill="black"/>
<path d="M153.447 104.26C152.433 104.26 151.493 104.053 150.627 103.64C149.76 103.213 149.007 102.64 148.367 101.92C147.74 101.2 147.247 100.38 146.887 99.46C146.527 98.5267 146.347 97.5467 146.347 96.52C146.347 95.4933 146.527 94.5133 146.887 93.58C147.247 92.6467 147.747 91.8133 148.387 91.08C149.027 90.3467 149.78 89.7733 150.647 89.36C151.527 88.9333 152.48 88.72 153.507 88.72C154.173 88.72 154.767 88.82 155.287 89.02C155.82 89.2067 156.347 89.5067 156.867 89.92L157.687 88.92H158.187V93.5H157.647C157.5 92.74 157.26 92.0467 156.927 91.42C156.593 90.7933 156.147 90.2933 155.587 89.92C155.027 89.5467 154.32 89.36 153.467 89.36C152.933 89.36 152.447 89.46 152.007 89.66C151.567 89.86 151.187 90.22 150.867 90.74C150.547 91.26 150.293 91.9933 150.107 92.94C149.933 93.8867 149.847 95.1133 149.847 96.62C149.847 98.0333 149.927 99.2 150.087 100.12C150.247 101.027 150.48 101.733 150.787 102.24C151.093 102.747 151.467 103.1 151.907 103.3C152.36 103.5 152.873 103.6 153.447 103.6C154.367 103.6 155.12 103.427 155.707 103.08C156.307 102.72 156.78 102.247 157.127 101.66C157.473 101.06 157.72 100.407 157.867 99.7H158.427V104H157.867L157.087 103.08C156.54 103.493 155.953 103.793 155.327 103.98C154.713 104.167 154.087 104.26 153.447 104.26Z" fill="black"/>
<path d="M161.751 103.7V88.92H164.671V103.7H161.751ZM159.711 104V103.44H166.751V104H159.711ZM159.711 89.48V88.92H166.751V89.48H159.711Z" fill="black"/>
<path d="M176.747 103.7L173.067 93.2H172.987L172.867 92.54L174.027 88.72H174.587L179.807 103.7H176.747ZM166.727 104V103.44H171.567V104H166.727ZM170.447 99.6V99.06H177.147V99.6H170.447ZM174.447 104V103.44H181.347V104H174.447ZM168.467 103.7L174.027 88.72H174.587L173.447 92.02L169.127 103.7H168.467Z" fill="black"/>
</svg>
