<svg width="45" height="45" viewBox="0 0 45 45" fill="none" xmlns="http://www.w3.org/2000/svg">
<path d="M45 22.5C45 34.9264 34.9264 45 22.5 45C10.0736 45 0 34.9264 0 22.5C0 10.0736 10.0736 0 22.5 0C34.9264 0 45 10.0736 45 22.5Z" fill="white"/>
<path d="M23 10.2C15.9312 10.2 10.2 15.9312 10.2 23C10.2 28.9979 14.3301 34.0165 19.8981 35.4053C19.8384 35.2325 19.8 35.032 19.8 34.7835V32.5957C19.2805 32.5957 18.4101 32.5957 18.1915 32.5957C17.3157 32.5957 16.5371 32.2192 16.1595 31.5195C15.7403 30.7419 15.6677 29.5525 14.6288 28.8251C14.3205 28.5829 14.5552 28.3067 14.9104 28.344C15.5664 28.5296 16.1104 28.9797 16.6224 29.6475C17.1323 30.3163 17.3723 30.4677 18.3248 30.4677C18.7867 30.4677 19.4779 30.4411 20.1285 30.3387C20.4784 29.4501 21.0832 28.632 21.8224 28.2459C17.56 27.8075 15.5259 25.6869 15.5259 22.808C15.5259 21.5685 16.0539 20.3696 16.9509 19.3595C16.6565 18.3568 16.2864 16.312 17.064 15.5333C18.9819 15.5333 20.1413 16.7771 20.4197 17.1131C21.3755 16.7856 22.4251 16.6 23.528 16.6C24.6331 16.6 25.6869 16.7856 26.6448 17.1152C26.92 16.7813 28.0805 15.5333 30.0027 15.5333C30.7835 16.3131 30.4091 18.3664 30.1115 19.3669C31.0032 20.3749 31.528 21.5707 31.528 22.808C31.528 25.6848 29.4971 27.8043 25.2411 28.2448C26.4123 28.856 27.2667 30.5733 27.2667 31.8672V34.7835C27.2667 34.8944 27.2421 34.9744 27.2293 35.0693C32.2171 33.3211 35.8 28.5851 35.8 23C35.8 15.9312 30.0688 10.2 23 10.2Z" fill="black"/>
</svg>
