<svg width="45" height="45" viewBox="0 0 45 45" fill="none" xmlns="http://www.w3.org/2000/svg">
<circle cx="22.5" cy="22.5" r="22.5" fill="white"/>
<path d="M23 13.3999C17.6984 13.3999 13.4 17.7656 13.4 23.1502C13.4 27.7191 16.4976 31.542 20.6736 32.5999C20.6288 32.4683 20.6 32.3155 20.6 32.1262V30.4597C20.2104 30.4597 19.5576 30.4597 19.3936 30.4597C18.7368 30.4597 18.1528 30.1729 17.8696 29.6399C17.5552 29.0475 17.5008 28.1416 16.7216 27.5874C16.4904 27.403 16.6664 27.1925 16.9328 27.221C17.4248 27.3624 17.8328 27.7052 18.2168 28.2139C18.5992 28.7233 18.7792 28.8387 19.4936 28.8387C19.84 28.8387 20.3584 28.8184 20.8464 28.7404C21.1088 28.0636 21.5624 27.4404 22.1168 27.1462C18.92 26.8123 17.3944 25.197 17.3944 23.004C17.3944 22.0598 17.7904 21.1465 18.4632 20.3771C18.2424 19.6133 17.9648 18.0557 18.548 17.4625C19.9864 17.4625 20.856 18.4099 21.0648 18.6659C21.7816 18.4164 22.5688 18.2751 23.396 18.2751C24.2248 18.2751 25.0152 18.4164 25.7336 18.6675C25.94 18.4132 26.8104 17.4625 28.252 17.4625C28.8376 18.0565 28.5568 19.6206 28.3336 20.3828C29.0024 21.1506 29.396 22.0614 29.396 23.004C29.396 25.1953 27.8728 26.8098 24.6808 27.1454C25.5592 27.611 26.2 28.9192 26.2 29.9048V32.1262C26.2 32.2107 26.1816 32.2716 26.172 32.344C29.9128 31.0122 32.6 27.4046 32.6 23.1502C32.6 17.7656 28.3016 13.3999 23 13.3999Z" fill="black"/>
</svg>
