<svg width="45" height="45" viewBox="0 0 45 45" fill="none" xmlns="http://www.w3.org/2000/svg">
<path d="M45 22.5C45 34.9264 34.9264 45 22.5 45C10.0736 45 0 34.9264 0 22.5C0 10.0736 10.0736 0 22.5 0C34.9264 0 45 10.0736 45 22.5Z" fill="white"/>
<path d="M19 14C16.243 14 14 16.243 14 19V27C14 29.757 16.243 32 19 32H27C29.757 32 32 29.757 32 27V19C32 16.243 29.757 14 27 14H19ZM19 16H27C28.654 16 30 17.346 30 19V27C30 28.654 28.654 30 27 30H19C17.346 30 16 28.654 16 27V19C16 17.346 17.346 16 19 16ZM28 17C27.7348 17 27.4804 17.1054 27.2929 17.2929C27.1054 17.4804 27 17.7348 27 18C27 18.2652 27.1054 18.5196 27.2929 18.7071C27.4804 18.8946 27.7348 19 28 19C28.2652 19 28.5196 18.8946 28.7071 18.7071C28.8946 18.5196 29 18.2652 29 18C29 17.7348 28.8946 17.4804 28.7071 17.2929C28.5196 17.1054 28.2652 17 28 17ZM23 18C20.243 18 18 20.243 18 23C18 25.757 20.243 28 23 28C25.757 28 28 25.757 28 23C28 20.243 25.757 18 23 18ZM23 20C24.654 20 26 21.346 26 23C26 24.654 24.654 26 23 26C21.346 26 20 24.654 20 23C20 21.346 21.346 20 23 20Z" fill="black"/>
</svg>
