<svg width="150" height="150" viewBox="0 0 150 150" fill="none" xmlns="http://www.w3.org/2000/svg">
<path d="M150 75C150 116.421 116.421 150 75 150C33.5786 150 0 116.421 0 75C0 33.5786 33.5786 0 75 0C116.421 0 150 33.5786 150 75Z" fill="#9EF944"/>
<path d="M75 35C52.91 35 35 52.91 35 75C35 93.7433 47.9067 109.427 65.3067 113.767C65.12 113.227 65 112.6 65 111.823V104.987C63.3767 104.987 60.6567 104.987 59.9733 104.987C57.2367 104.987 54.8033 103.81 53.6233 101.623C52.3133 99.1933 52.0867 95.4767 48.84 93.2033C47.8767 92.4467 48.61 91.5833 49.72 91.7C51.77 92.28 53.47 93.6867 55.07 95.7733C56.6633 97.8633 57.4133 98.3367 60.39 98.3367C61.8333 98.3367 63.9933 98.2533 66.0267 97.9333C67.12 95.1567 69.01 92.6 71.32 91.3933C58 90.0233 51.6433 83.3967 51.6433 74.4C51.6433 70.5267 53.2933 66.78 56.0967 63.6233C55.1767 60.49 54.02 54.1 56.45 51.6667C62.4433 51.6667 66.0667 55.5533 66.9367 56.6033C69.9233 55.58 73.2033 55 76.65 55C80.1033 55 83.3967 55.58 86.39 56.61C87.25 55.5667 90.8767 51.6667 96.8833 51.6667C99.3233 54.1033 98.1533 60.52 97.2233 63.6467C100.01 66.7967 101.65 70.5333 101.65 74.4C101.65 83.39 95.3033 90.0133 82.0033 91.39C85.6633 93.3 88.3333 98.6667 88.3333 102.71V111.823C88.3333 112.17 88.2567 112.42 88.2167 112.717C103.803 107.253 115 92.4533 115 75C115 52.91 97.09 35 75 35Z" fill="#132500"/>
<path d="M75 35C52.91 35 35 52.91 35 75C35 93.7433 47.9067 109.427 65.3067 113.767C65.12 113.227 65 112.6 65 111.823V104.987C63.3767 104.987 60.6567 104.987 59.9733 104.987C57.2367 104.987 54.8033 103.81 53.6233 101.623C52.3133 99.1933 52.0867 95.4767 48.84 93.2033C47.8767 92.4467 48.61 91.5833 49.72 91.7C51.77 92.28 53.47 93.6867 55.07 95.7733C56.6633 97.8633 57.4133 98.3367 60.39 98.3367C61.8333 98.3367 63.9933 98.2533 66.0267 97.9333C67.12 95.1567 69.01 92.6 71.32 91.3933C58 90.0233 51.6433 83.3967 51.6433 74.4C51.6433 70.5267 53.2933 66.78 56.0967 63.6233C55.1767 60.49 54.02 54.1 56.45 51.6667C62.4433 51.6667 66.0667 55.5533 66.9367 56.6033C69.9233 55.58 73.2033 55 76.65 55C80.1033 55 83.3967 55.58 86.39 56.61C87.25 55.5667 90.8767 51.6667 96.8833 51.6667C99.3233 54.1033 98.1533 60.52 97.2233 63.6467C100.01 66.7967 101.65 70.5333 101.65 74.4C101.65 83.39 95.3033 90.0133 82.0033 91.39C85.6633 93.3 88.3333 98.6667 88.3333 102.71V111.823C88.3333 112.17 88.2567 112.42 88.2167 112.717C103.803 107.253 115 92.4533 115 75C115 52.91 97.09 35 75 35Z" fill="black" fill-opacity="0.2"/>
</svg>
