<svg width="45" height="45" viewBox="0 0 45 45" fill="none" xmlns="http://www.w3.org/2000/svg">
<path d="M45 22.5C45 34.9264 34.9264 45 22.5 45C10.0736 45 0 34.9264 0 22.5C0 10.0736 10.0736 0 22.5 0C34.9264 0 45 10.0736 45 22.5Z" fill="white"/>
<path d="M15 30.4892C12.7333 30.4892 10.8333 29.747 9.3 28.2626C7.76667 26.7782 7 24.9389 7 22.7446C7 20.5503 7.76667 18.711 9.3 17.2266C10.8333 15.7422 12.7333 15 15 15H20.6C20.9467 15 21.2333 15.1097 21.46 15.3291C21.6867 15.5486 21.8 15.8261 21.8 16.1617C21.8 16.4973 21.6867 16.7748 21.46 16.9942C21.2333 17.2137 20.9467 17.3234 20.6 17.3234H15C13.4 17.3234 12.0667 17.8397 11 18.8723C9.93333 19.9049 9.4 21.1957 9.4 22.7446C9.4 24.2935 9.93333 25.5843 11 26.6169C12.0667 27.6495 13.4 28.1658 15 28.1658H20.6C20.9467 28.1658 21.2333 28.2755 21.46 28.495C21.6867 28.7144 21.8 28.9919 21.8 29.3275C21.8 29.6631 21.6867 29.9406 21.46 30.1601C21.2333 30.3795 20.9467 30.4892 20.6 30.4892H15ZM18 23.9063C17.6533 23.9063 17.3667 23.7966 17.14 23.5771C16.9133 23.3577 16.8 23.0802 16.8 22.7446C16.8 22.409 16.9133 22.1315 17.14 21.9121C17.3667 21.6926 17.6533 21.5829 18 21.5829H28C28.3467 21.5829 28.6333 21.6926 28.86 21.9121C29.0867 22.1315 29.2 22.409 29.2 22.7446C29.2 23.0802 29.0867 23.3577 28.86 23.5771C28.6333 23.7966 28.3467 23.9063 28 23.9063H18ZM25.4 30.4892C25.0533 30.4892 24.7667 30.3795 24.54 30.1601C24.3133 29.9406 24.2 29.6631 24.2 29.3275C24.2 28.9919 24.3133 28.7144 24.54 28.495C24.7667 28.2755 25.0533 28.1658 25.4 28.1658H31C32.6 28.1658 33.9333 27.6495 35 26.6169C36.0667 25.5843 36.6 24.2935 36.6 22.7446C36.6 21.1957 36.0667 19.9049 35 18.8723C33.9333 17.8397 32.6 17.3234 31 17.3234H25.4C25.0533 17.3234 24.7667 17.2137 24.54 16.9942C24.3133 16.7748 24.2 16.4973 24.2 16.1617C24.2 15.8261 24.3133 15.5486 24.54 15.3291C24.7667 15.1097 25.0533 15 25.4 15H31C33.2667 15 35.1667 15.7422 36.7 17.2266C38.2333 18.711 39 20.5503 39 22.7446C39 24.9389 38.2333 26.7782 36.7 28.2626C35.1667 29.747 33.2667 30.4892 31 30.4892H25.4Z" fill="black"/>
</svg>
