<svg width="276" height="60" viewBox="0 0 276 60" fill="none" xmlns="http://www.w3.org/2000/svg">
<g filter="url(#filter0_i_5_37)">
<path d="M220.745 33.9108L222.045 36.8527L212.109 41.0953L221.712 45.2826L220.856 48.5559L208.828 42.9533V39.2682L220.745 33.9108Z" fill="#9EF944"/>
<path d="M228.161 20.4784L231.504 21.6449L223.97 50.1558L220.856 48.5559L228.161 20.4784Z" fill="#9EF944"/>
<path d="M231.504 21.645L244.892 27.4178V31.103L232.975 36.4294L231.675 33.4255L241.58 29.2449L230.619 24.9946L231.504 21.645Z" fill="#9EF944"/>
<path d="M23.3852 39.3084L22.2708 34.6942H16.0183L14.9349 39.3084H9.67285L16.1421 17.8477H22.3018L28.771 39.3084H23.3852ZM16.885 31.009H21.4041L19.1446 21.5329L16.885 31.009Z" fill="black"/>
<path d="M44.9857 16.3303V39.3084H40.6523L40.4047 37.3884C39.2491 39.0193 37.6911 39.8348 35.7307 39.8348C33.6878 39.8348 32.1298 39.0503 31.0568 37.4813C30.0044 35.9122 29.4781 33.7652 29.4781 31.04C29.4781 29.3677 29.7567 27.871 30.3139 26.5497C30.871 25.2284 31.6552 24.1961 32.6663 23.4529C33.6981 22.7097 34.8743 22.3381 36.195 22.3381C37.7633 22.3381 39.0633 22.8542 40.0951 23.8864V15.8039L44.9857 16.3303ZM37.2474 36.2426C38.3824 36.2426 39.3316 35.6232 40.0951 34.3845V27.2929C39.703 26.8181 39.3007 26.4671 38.8879 26.24C38.4959 26.0129 38.0419 25.8993 37.526 25.8993C36.618 25.8993 35.8958 26.3226 35.3593 27.169C34.8227 28.0155 34.5545 29.3161 34.5545 31.071C34.5545 32.991 34.7815 34.3329 35.2355 35.0968C35.7101 35.8606 36.3807 36.2426 37.2474 36.2426Z" fill="black"/>
<path d="M57.7265 22.4C58.3249 22.4 58.8718 22.4723 59.367 22.6168L58.5931 27.3548C57.9741 27.2103 57.4788 27.1381 57.1074 27.1381C56.1375 27.1381 55.3947 27.4787 54.8788 28.16C54.3835 28.8206 53.9914 29.8219 53.7025 31.1639V39.3084H48.8119V22.8645H53.0834L53.4858 26.0542C53.8573 24.9187 54.4145 24.031 55.1574 23.391C55.9209 22.7303 56.7773 22.4 57.7265 22.4Z" fill="black"/>
<path d="M66.1259 22.8645V39.3084H61.2355V22.8645H66.1259ZM63.6499 14.1935C64.4957 14.1935 65.187 14.4619 65.7235 14.9987C66.2807 15.5148 66.5592 16.1755 66.5592 16.9806C66.5592 17.7858 66.2807 18.4568 65.7235 18.9935C65.187 19.5097 64.4957 19.7677 63.6499 19.7677C62.8038 19.7677 62.1125 19.5097 61.576 18.9935C61.0395 18.4568 60.7712 17.7858 60.7712 16.9806C60.7712 16.1755 61.0395 15.5148 61.576 14.9987C62.1125 14.4619 62.8038 14.1935 63.6499 14.1935Z" fill="black"/>
<path d="M83.0334 34.5394C83.0334 35.1587 83.1159 35.6129 83.281 35.9019C83.4668 36.191 83.7557 36.4077 84.1477 36.5523L83.1263 39.7419C82.1151 39.6594 81.2897 39.4426 80.65 39.0916C80.0103 38.72 79.5151 38.1419 79.1643 37.3574C78.0912 39.009 76.4404 39.8348 74.2117 39.8348C72.5815 39.8348 71.2815 39.36 70.3116 38.4103C69.3417 37.4607 68.8568 36.2219 68.8568 34.6942C68.8568 32.8981 69.5171 31.5252 70.8378 30.5755C72.1585 29.6258 74.0673 29.151 76.5642 29.151H78.2357V28.4387C78.2357 27.4684 78.0293 26.8078 77.6166 26.4568C77.2039 26.0852 76.4816 25.8994 75.4499 25.8994C74.9133 25.8994 74.2633 25.9819 73.4998 26.1471C72.7363 26.2916 71.9521 26.4981 71.1474 26.7665L70.033 23.5458C71.0648 23.1536 72.1172 22.8542 73.1903 22.6478C74.284 22.4413 75.2951 22.3381 76.2237 22.3381C78.5761 22.3381 80.2992 22.8232 81.3929 23.7936C82.4866 24.7639 83.0334 26.2194 83.0334 28.16V34.5394ZM75.6356 36.3355C76.7499 36.3355 77.6166 35.809 78.2357 34.7561V31.8452H77.0285C75.9142 31.8452 75.0784 32.0413 74.5213 32.4336C73.9847 32.8258 73.7165 33.4348 73.7165 34.2607C73.7165 34.9213 73.8816 35.4374 74.2117 35.809C74.5625 36.16 75.0371 36.3355 75.6356 36.3355Z" fill="black"/>
<path d="M96.5556 22.3381C97.9794 22.3381 99.0937 22.7716 99.8985 23.6387C100.703 24.5058 101.106 25.7239 101.106 27.2929V39.3084H96.2151V28.129C96.2151 27.3032 96.0809 26.7355 95.8127 26.4258C95.565 26.0955 95.1833 25.9303 94.6674 25.9303C93.6769 25.9303 92.7277 26.6426 91.8197 28.0671V39.3084H86.9291V22.8645H91.2006L91.5411 24.8155C92.2427 23.9897 92.9959 23.3703 93.8007 22.9574C94.6261 22.5445 95.5444 22.3381 96.5556 22.3381Z" fill="black"/>
<path d="M123.53 39.3084L122.416 34.6942H116.163L115.08 39.3084H109.818L116.287 17.8477H122.447L128.916 39.3084H123.53ZM117.03 31.009H121.549L119.289 21.5329L117.03 31.009Z" fill="black"/>
<path d="M148.566 22.3381C149.866 22.3381 150.908 22.7819 151.692 23.6697C152.476 24.5368 152.869 25.7445 152.869 27.2929V39.3084H147.978V28.129C147.978 26.6632 147.514 25.9303 146.585 25.9303C146.069 25.9303 145.615 26.1058 145.223 26.4568C144.831 26.8078 144.449 27.3445 144.078 28.0671V39.3084H139.187V28.129C139.187 26.6632 138.723 25.9303 137.794 25.9303C137.299 25.9303 136.845 26.1161 136.432 26.4878C136.04 26.8387 135.659 27.3652 135.287 28.0671V39.3084H130.396V22.8645H134.668L135.009 24.7845C135.648 23.9587 136.35 23.3497 137.113 22.9574C137.897 22.5445 138.785 22.3381 139.775 22.3381C140.704 22.3381 141.498 22.5652 142.159 23.0194C142.84 23.4736 143.335 24.1136 143.644 24.9394C144.305 24.0516 145.027 23.4013 145.811 22.9884C146.616 22.5548 147.534 22.3381 148.566 22.3381Z" fill="black"/>
<path d="M169.606 34.5394C169.606 35.1587 169.688 35.6129 169.853 35.9019C170.039 36.191 170.328 36.4077 170.72 36.5523L169.699 39.7419C168.688 39.6594 167.862 39.4426 167.222 39.0916C166.583 38.72 166.087 38.1419 165.737 37.3574C164.664 39.009 163.013 39.8348 160.784 39.8348C159.154 39.8348 157.854 39.36 156.884 38.4103C155.914 37.4607 155.429 36.2219 155.429 34.6942C155.429 32.8981 156.09 31.5252 157.41 30.5755C158.731 29.6258 160.64 29.151 163.137 29.151H164.808V28.4387C164.808 27.4684 164.602 26.8078 164.189 26.4568C163.776 26.0852 163.054 25.8994 162.022 25.8994C161.486 25.8994 160.836 25.9819 160.072 26.1471C159.309 26.2916 158.525 26.4981 157.72 26.7665L156.605 23.5458C157.637 23.1536 158.69 22.8542 159.763 22.6478C160.856 22.4413 161.867 22.3381 162.796 22.3381C165.149 22.3381 166.872 22.8232 167.965 23.7936C169.059 24.7639 169.606 26.2194 169.606 28.16V34.5394ZM162.208 36.3355C163.322 36.3355 164.189 35.809 164.808 34.7561V31.8452H163.601C162.487 31.8452 161.651 32.0413 161.094 32.4336C160.557 32.8258 160.289 33.4348 160.289 34.2607C160.289 34.9213 160.454 35.4374 160.784 35.809C161.135 36.16 161.61 36.3355 162.208 36.3355Z" fill="black"/>
<path d="M182.416 22.4C183.014 22.4 183.561 22.4723 184.057 22.6168L183.283 27.3548C182.664 27.2103 182.168 27.1381 181.797 27.1381C180.827 27.1381 180.084 27.4787 179.568 28.16C179.073 28.8206 178.681 29.8219 178.392 31.1639V39.3084H173.501V22.8645H177.773L178.175 26.0542C178.547 24.9187 179.104 24.031 179.847 23.391C180.61 22.7303 181.467 22.4 182.416 22.4Z" fill="black"/>
<path d="M198.686 34.658C198.686 35.2774 198.769 35.7316 198.934 36.0206C199.12 36.3097 199.409 36.5264 199.801 36.671L198.779 39.8606C197.768 39.778 196.943 39.5613 196.303 39.2103C195.663 38.8387 195.168 38.2606 194.817 37.4761C193.744 39.1277 192.093 39.9535 189.865 39.9535C188.235 39.9535 186.935 39.4787 185.965 38.529C184.995 37.5793 184.51 36.3406 184.51 34.8129C184.51 33.0168 185.17 31.6439 186.491 30.6942C187.812 29.7445 189.72 29.2697 192.217 29.2697H193.889V28.5574C193.889 27.5871 193.682 26.9264 193.27 26.5755C192.857 26.2039 192.135 26.018 191.103 26.018C190.566 26.018 189.916 26.1006 189.153 26.2658C188.389 26.4103 187.605 26.6168 186.8 26.8851L185.686 23.6645C186.718 23.2722 187.77 22.9729 188.843 22.7664C189.937 22.56 190.948 22.4568 191.877 22.4568C194.229 22.4568 195.952 22.9419 197.046 23.9122C198.14 24.8826 198.686 26.338 198.686 28.2787V34.658ZM191.289 36.4542C192.403 36.4542 193.27 35.9277 193.889 34.8748V31.9639H192.682C191.567 31.9639 190.731 32.16 190.174 32.5522C189.638 32.9445 189.37 33.5535 189.37 34.3793C189.37 35.04 189.535 35.5561 189.865 35.9277C190.216 36.2787 190.69 36.4542 191.289 36.4542Z" fill="black"/>
<path d="M205.857 39.8348C204.433 39.8348 203.319 39.4322 202.514 38.6271C201.73 37.8013 201.338 36.6348 201.338 35.1277V16.3303L206.228 15.8039V34.9419C206.228 35.6232 206.507 35.9639 207.064 35.9639C207.353 35.9639 207.621 35.9123 207.869 35.809L208.828 39.2774C207.941 39.649 206.95 39.8348 205.857 39.8348Z" fill="black"/>
</g>
<defs>
<filter id="filter0_i_5_37" x="9.67285" y="14.1935" width="235.219" height="36.6074" filterUnits="userSpaceOnUse" color-interpolation-filters="sRGB">
<feFlood flood-opacity="0" result="BackgroundImageFix"/>
<feBlend mode="normal" in="SourceGraphic" in2="BackgroundImageFix" result="shape"/>
<feColorMatrix in="SourceAlpha" type="matrix" values="0 0 0 0 0 0 0 0 0 0 0 0 0 0 0 0 0 0 127 0" result="hardAlpha"/>
<feOffset dy="0.645161"/>
<feGaussianBlur stdDeviation="0.322581"/>
<feComposite in2="hardAlpha" operator="arithmetic" k2="-1" k3="1"/>
<feColorMatrix type="matrix" values="0 0 0 0 0 0 0 0 0 0 0 0 0 0 0 0 0 0 0.1 0"/>
<feBlend mode="normal" in2="shape" result="effect1_innerShadow_5_37"/>
</filter>
</defs>
</svg>
