<svg width="200" height="200" viewBox="0 0 200 200" fill="none" xmlns="http://www.w3.org/2000/svg">
<path d="M200 100C200 155.228 155.228 200 100 200C44.7715 200 0 155.228 0 100C0 44.7715 44.7715 0 100 0C155.228 0 200 44.7715 200 100Z" fill="#EDEDED"/>
<path d="M38.32 110V109.104H49.648C50.6293 109.104 51.4613 108.955 52.144 108.656C52.8267 108.357 53.3493 107.792 53.712 106.96C54.096 106.107 54.288 104.912 54.288 103.376C54.288 101.968 54.1173 100.88 53.776 100.112C53.456 99.344 52.9013 98.8107 52.112 98.512C51.3227 98.192 50.256 98.032 48.912 98.032L47.952 96.976C50.2133 96.976 52.2187 97.2107 53.968 97.68C55.7173 98.128 57.0933 98.8427 58.096 99.824C59.0987 100.805 59.6 102.075 59.6 103.632C59.6 104.997 59.216 106.16 58.448 107.12C57.7013 108.059 56.6667 108.773 55.344 109.264C54.0427 109.755 52.5707 110 50.928 110H38.32ZM41.68 109.52V85.872H46.352V109.52H41.68ZM44.976 98.032V96.976H49.648C50.5867 96.976 51.344 96.848 51.92 96.592C52.5173 96.3147 52.9547 95.8133 53.232 95.088C53.5093 94.3413 53.648 93.2747 53.648 91.888C53.648 90.4587 53.5093 89.3813 53.232 88.656C52.9547 87.9093 52.5173 87.408 51.92 87.152C51.3227 86.896 50.5653 86.768 49.648 86.768H38.32V85.872H50.928C52.3787 85.872 53.6907 86.1067 54.864 86.576C56.0373 87.0453 56.9653 87.728 57.648 88.624C58.352 89.4987 58.704 90.5653 58.704 91.824C58.704 93.104 58.3093 94.2133 57.52 95.152C56.7307 96.0907 55.6533 96.8053 54.288 97.296C52.944 97.7867 51.3973 98.032 49.648 98.032H44.976Z" fill="#707070"/>
<path d="M64.674 109.52V96.24H68.674V109.52H64.674ZM62.114 110V109.104H70.978V110H62.114ZM61.954 96.624V95.728H68.674V96.624H61.954ZM66.498 91.376C65.8793 91.376 65.3353 91.152 64.866 90.704C64.3967 90.2347 64.162 89.68 64.162 89.04C64.162 88.4 64.3967 87.8453 64.866 87.376C65.3353 86.9067 65.8793 86.672 66.498 86.672C67.138 86.672 67.6927 86.9067 68.162 87.376C68.6313 87.8453 68.866 88.4 68.866 89.04C68.866 89.68 68.6313 90.2347 68.162 90.704C67.6927 91.152 67.138 91.376 66.498 91.376Z" fill="#707070"/>
<path d="M84.425 109.52L78.921 101.936L82.057 99.952L89.385 109.52H84.425ZM72.137 110V109.104H80.585V110H72.137ZM82.153 110V109.104H90.697V110H82.153ZM74.697 109.52V86.384H78.665V109.52H74.697ZM80.233 102.032L78.921 101.936L84.937 96.176H86.441L80.233 102.032ZM72.137 86.768V85.872H78.665V86.768H72.137ZM81.513 96.496V95.6H88.937V96.496H81.513Z" fill="#707070"/>
<path d="M98.527 110.416C97.4817 110.416 96.4897 110.203 95.551 109.776C94.6337 109.349 93.823 108.773 93.119 108.048C92.415 107.323 91.8603 106.501 91.455 105.584C91.071 104.667 90.879 103.728 90.879 102.768C90.879 101.829 91.071 100.912 91.455 100.016C91.8603 99.12 92.4043 98.3093 93.087 97.584C93.791 96.8587 94.6123 96.2827 95.551 95.856C96.511 95.4293 97.5563 95.216 98.687 95.216C99.6683 95.216 100.564 95.3867 101.375 95.728C102.207 96.048 102.858 96.4853 103.327 97.04C103.818 97.5947 104.063 98.256 104.063 99.024C104.063 99.7067 103.85 100.24 103.423 100.624C103.018 101.008 102.484 101.2 101.823 101.2C101.226 101.2 100.714 101.029 100.287 100.688C99.8817 100.347 99.679 99.8667 99.679 99.248C99.679 98.864 99.7537 98.576 99.903 98.384C100.052 98.1707 100.191 97.9787 100.319 97.808C100.468 97.6373 100.543 97.424 100.543 97.168C100.543 96.8267 100.383 96.5813 100.063 96.432C99.7643 96.2613 99.3163 96.176 98.719 96.176C98.015 96.176 97.4177 96.3573 96.927 96.72C96.4363 97.0827 96.063 97.7547 95.807 98.736C95.5723 99.7173 95.455 101.157 95.455 103.056C95.455 104.72 95.551 106.011 95.743 106.928C95.9563 107.845 96.3083 108.485 96.799 108.848C97.2897 109.189 97.9403 109.36 98.751 109.36C99.903 109.36 100.874 109.04 101.663 108.4C102.452 107.76 103.135 106.715 103.711 105.264H104.703C104.276 106.8 103.54 108.048 102.495 109.008C101.45 109.947 100.127 110.416 98.527 110.416Z" fill="#707070"/>
<path d="M106.549 110V109.104H109.109V96.496H106.549V95.6H113.077V98.096H113.205C113.824 96.9227 114.507 96.1547 115.253 95.792C116 95.408 116.672 95.216 117.269 95.216C118.101 95.216 118.752 95.44 119.221 95.888C119.691 96.336 119.925 96.976 119.925 97.808C119.925 98.5973 119.712 99.184 119.285 99.568C118.859 99.9307 118.347 100.112 117.749 100.112C117.237 100.112 116.768 99.9627 116.341 99.664C115.936 99.3653 115.733 98.9387 115.733 98.384C115.733 98.1067 115.776 97.8933 115.861 97.744C115.947 97.5947 115.989 97.4667 115.989 97.36C115.989 97.2747 115.968 97.2107 115.925 97.168C115.883 97.104 115.776 97.072 115.605 97.072C115.307 97.072 114.955 97.296 114.549 97.744C114.144 98.192 113.792 98.7787 113.493 99.504C113.216 100.229 113.077 101.029 113.077 101.904V109.104H115.541V110H106.549Z" fill="#707070"/>
<path d="M126.034 110.384C124.839 110.384 123.858 110.053 123.09 109.392C122.322 108.731 121.938 107.856 121.938 106.768C121.938 105.744 122.29 104.869 122.994 104.144C123.719 103.397 124.732 102.832 126.034 102.448C127.356 102.043 128.903 101.84 130.674 101.84V98.032C130.674 97.4773 130.46 97.04 130.034 96.72C129.628 96.4 129.074 96.24 128.37 96.24C127.772 96.24 127.271 96.3467 126.866 96.56C126.46 96.7733 126.258 97.0507 126.258 97.392C126.258 97.648 126.354 97.872 126.546 98.064C126.738 98.2347 126.834 98.5227 126.834 98.928C126.834 99.44 126.642 99.8773 126.258 100.24C125.874 100.581 125.394 100.752 124.818 100.752C124.263 100.752 123.804 100.571 123.442 100.208C123.1 99.8453 122.93 99.3867 122.93 98.832C122.93 98.1493 123.196 97.5413 123.73 97.008C124.263 96.4533 124.988 96.016 125.906 95.696C126.844 95.376 127.89 95.216 129.042 95.216C130.684 95.216 132.028 95.5253 133.074 96.144C134.119 96.7413 134.642 97.5307 134.642 98.512V108.016C134.642 108.229 134.706 108.411 134.834 108.56C134.983 108.688 135.154 108.752 135.346 108.752C135.538 108.752 135.74 108.667 135.954 108.496C136.188 108.325 136.498 108.027 136.882 107.6L137.426 108.24C136.338 109.669 135.111 110.384 133.746 110.384C132.935 110.384 132.284 110.181 131.794 109.776C131.303 109.371 130.972 108.816 130.802 108.112H130.674C130.268 108.709 129.65 109.243 128.818 109.712C127.986 110.16 127.058 110.384 126.034 110.384ZM128.082 108.624C128.828 108.624 129.447 108.325 129.938 107.728C130.428 107.109 130.674 106.309 130.674 105.328V102.768C129.18 102.768 128.039 103.067 127.25 103.664C126.482 104.24 126.098 105.093 126.098 106.224C126.098 106.949 126.268 107.536 126.61 107.984C126.951 108.411 127.442 108.624 128.082 108.624Z" fill="#707070"/>
<path d="M140.863 110V94.672C140.863 92.752 141.108 91.1093 141.599 89.744C142.09 88.3787 142.804 87.3333 143.743 86.608C144.682 85.8613 145.812 85.488 147.135 85.488C148.351 85.488 149.3 85.7653 149.983 86.32C150.687 86.8533 151.039 87.5253 151.039 88.336C151.039 88.9333 150.847 89.4133 150.463 89.776C150.1 90.1387 149.62 90.32 149.023 90.32C148.532 90.32 148.116 90.1813 147.775 89.904C147.434 89.6053 147.263 89.2 147.263 88.688C147.263 88.368 147.306 88.1227 147.391 87.952C147.498 87.7813 147.604 87.632 147.711 87.504C147.818 87.376 147.871 87.216 147.871 87.024C147.871 86.64 147.572 86.448 146.975 86.448C146.314 86.448 145.791 86.7147 145.407 87.248C145.044 87.76 144.863 88.688 144.863 90.032V110H140.863ZM138.047 110V109.104H148.287V110H138.047ZM138.015 96.656V95.76H148.543V96.656H138.015Z" fill="#707070"/>
<path d="M156.401 110.416C155.206 110.416 154.321 110.192 153.745 109.744C153.19 109.275 152.913 108.603 152.913 107.728V96.528H150.321V95.6C151.11 95.536 151.846 95.248 152.529 94.736C153.211 94.224 153.83 93.5627 154.385 92.752C154.961 91.9413 155.43 91.056 155.793 90.096H156.881V95.6H160.561V96.528H156.881V107.344C156.881 108.304 157.286 108.784 158.097 108.784C158.523 108.784 158.907 108.645 159.249 108.368C159.611 108.069 159.995 107.568 160.401 106.864L161.105 107.28C160.55 108.453 159.91 109.275 159.185 109.744C158.459 110.192 157.531 110.416 156.401 110.416Z" fill="#707070"/>
</svg>
