<svg width="150" height="150" viewBox="0 0 150 150" fill="none" xmlns="http://www.w3.org/2000/svg">
<path d="M150 75C150 116.421 116.421 150 75 150C33.5786 150 0 116.421 0 75C0 33.5786 33.5786 0 75 0C116.421 0 150 33.5786 150 75Z" fill="#9EF944"/>
<path d="M52.7778 25C37.4611 25 25 37.4611 25 52.7778V97.2222C25 112.539 37.4611 125 52.7778 125H97.2222C112.539 125 125 112.539 125 97.2222V52.7778C125 37.4611 112.539 25 97.2222 25H52.7778ZM52.7778 36.1111H97.2222C106.411 36.1111 113.889 43.5889 113.889 52.7778V97.2222C113.889 106.411 106.411 113.889 97.2222 113.889H52.7778C43.5889 113.889 36.1111 106.411 36.1111 97.2222V52.7778C36.1111 43.5889 43.5889 36.1111 52.7778 36.1111ZM102.778 41.6667C101.304 41.6667 99.8913 42.252 98.8494 43.2938C97.8075 44.3357 97.2222 45.7488 97.2222 47.2222C97.2222 48.6956 97.8075 50.1087 98.8494 51.1506C99.8913 52.1925 101.304 52.7778 102.778 52.7778C104.251 52.7778 105.664 52.1925 106.706 51.1506C107.748 50.1087 108.333 48.6956 108.333 47.2222C108.333 45.7488 107.748 44.3357 106.706 43.2938C105.664 42.252 104.251 41.6667 102.778 41.6667ZM75 47.2222C59.6833 47.2222 47.2222 59.6833 47.2222 75C47.2222 90.3167 59.6833 102.778 75 102.778C90.3167 102.778 102.778 90.3167 102.778 75C102.778 59.6833 90.3167 47.2222 75 47.2222ZM75 58.3333C84.1889 58.3333 91.6667 65.8111 91.6667 75C91.6667 84.1889 84.1889 91.6667 75 91.6667C65.8111 91.6667 58.3333 84.1889 58.3333 75C58.3333 65.8111 65.8111 58.3333 75 58.3333Z" fill="#132500"/>
<path d="M52.7778 25C37.4611 25 25 37.4611 25 52.7778V97.2222C25 112.539 37.4611 125 52.7778 125H97.2222C112.539 125 125 112.539 125 97.2222V52.7778C125 37.4611 112.539 25 97.2222 25H52.7778ZM52.7778 36.1111H97.2222C106.411 36.1111 113.889 43.5889 113.889 52.7778V97.2222C113.889 106.411 106.411 113.889 97.2222 113.889H52.7778C43.5889 113.889 36.1111 106.411 36.1111 97.2222V52.7778C36.1111 43.5889 43.5889 36.1111 52.7778 36.1111ZM102.778 41.6667C101.304 41.6667 99.8913 42.252 98.8494 43.2938C97.8075 44.3357 97.2222 45.7488 97.2222 47.2222C97.2222 48.6956 97.8075 50.1087 98.8494 51.1506C99.8913 52.1925 101.304 52.7778 102.778 52.7778C104.251 52.7778 105.664 52.1925 106.706 51.1506C107.748 50.1087 108.333 48.6956 108.333 47.2222C108.333 45.7488 107.748 44.3357 106.706 43.2938C105.664 42.252 104.251 41.6667 102.778 41.6667ZM75 47.2222C59.6833 47.2222 47.2222 59.6833 47.2222 75C47.2222 90.3167 59.6833 102.778 75 102.778C90.3167 102.778 102.778 90.3167 102.778 75C102.778 59.6833 90.3167 47.2222 75 47.2222ZM75 58.3333C84.1889 58.3333 91.6667 65.8111 91.6667 75C91.6667 84.1889 84.1889 91.6667 75 91.6667C65.8111 91.6667 58.3333 84.1889 58.3333 75C58.3333 65.8111 65.8111 58.3333 75 58.3333Z" fill="black" fill-opacity="0.2"/>
</svg>
